<?xml version="1.0" standalone="no"?>
<!DOCTYPE svg PUBLIC "-//W3C//DTD SVG 20010904//EN"
 "http://www.w3.org/TR/2001/REC-SVG-20010904/DTD/svg10.dtd">
<svg version="1.0" xmlns="http://www.w3.org/2000/svg"
 width="700.000000pt" height="700.000000pt" viewBox="0 0 700.000000 700.000000"
 preserveAspectRatio="xMidYMid meet">
<metadata>
Created by potrace 1.14, written by Peter Selinger 2001-2017
</metadata>
<g transform="translate(0.000000,700.000000) scale(0.100000,-0.100000)"
fill="#000000" stroke="none">
<path d="M2020 5919 c-70 -11 -85 -16 -123 -41 -27 -17 -36 -31 -39 -57 -5
-38 -1 -541 6 -751 2 -74 5 -193 6 -264 l2 -128 -58 -60 -59 -59 2 -268 2
-268 -207 -100 -207 -100 -50 19 c-85 34 -219 66 -301 73 -44 4 -82 9 -85 11
-14 8 -18 -28 -19 -167 -2 -151 -2 -157 -14 -229 -11 -59 -192 -618 -211 -646
-7 -11 -40 -31 -72 -43 -144 -56 -186 -75 -213 -101 -19 -18 -28 -34 -24 -44
3 -9 52 -42 108 -73 156 -87 172 -102 197 -186 53 -181 95 -263 189 -372 33
-38 60 -72 60 -75 -1 -3 -40 -55 -88 -117 -128 -164 -175 -268 -158 -355 29
-155 338 -174 616 -38 30 15 86 44 123 65 82 45 107 45 267 -9 158 -52 420
-130 555 -165 127 -33 480 -116 533 -126 18 -3 76 -14 129 -24 54 -11 118 -22
143 -26 25 -3 52 -8 60 -10 8 -3 47 -9 85 -15 39 -5 79 -11 90 -14 22 -4 128
-18 160 -21 11 -1 47 -5 80 -9 33 -4 80 -9 105 -12 25 -2 65 -6 90 -8 269 -30
676 -35 945 -11 56 5 77 8 180 19 333 39 716 155 964 293 297 164 556 434 712
740 55 110 106 256 114 333 2 14 6 51 10 83 l8 57 -99 -5 c-154 -8 -227 -16
-304 -30 -81 -15 -185 -39 -280 -65 -185 -49 -456 -118 -486 -124 -256 -46
-310 -54 -499 -71 -339 -30 -917 -22 -1102 16 -57 11 -71 28 -25 30 15 0 63 2
107 4 44 2 193 6 330 10 138 3 268 7 290 9 22 2 80 7 129 11 49 4 97 8 106 10
9 2 41 6 71 10 259 32 565 102 865 199 278 89 295 94 424 120 119 24 283 28
429 11 l64 -7 -7 33 c-55 261 -117 402 -249 566 -81 102 -230 251 -337 336
-76 61 -248 179 -406 277 -36 22 -63 48 -75 72 -29 56 -46 61 -181 55 -65 -4
-122 -8 -126 -11 -4 -2 -39 -7 -79 -10 -40 -4 -78 -8 -85 -11 -7 -2 -31 -6
-53 -9 -93 -12 -390 -57 -465 -71 -14 -2 -50 -7 -80 -11 -30 -3 -66 -7 -80 -9
-127 -18 -1249 -27 -1450 -12 -41 3 -86 6 -100 6 -43 2 -8 19 50 26 30 3 73 8
95 10 22 2 81 7 130 10 50 4 115 8 145 10 30 2 102 7 160 10 58 3 126 8 152
10 25 2 90 6 145 10 54 3 114 8 133 9 20 2 76 7 125 11 49 4 96 8 104 10 9 1
43 6 76 9 85 10 119 15 215 33 47 8 96 17 109 20 14 2 28 6 31 8 4 2 21 7 39
10 35 6 174 52 256 84 l50 19 -3 154 c-2 84 -5 154 -7 156 -1 2 -40 12 -86 23
-46 11 -91 22 -99 24 -288 70 -457 102 -530 99 -62 -1 -113 -9 -321 -49 -9 -2
-40 -6 -69 -10 -29 -4 -62 -9 -74 -11 -121 -23 -546 -22 -668 1 -13 3 -45 9
-73 14 -60 11 -101 26 -109 40 -12 19 -13 19 284 36 47 3 119 7 160 10 41 3
118 7 170 10 99 6 176 12 245 20 22 3 60 7 85 9 69 8 144 24 181 39 l33 13
-48 36 c-52 40 -130 69 -246 92 -70 14 -95 17 -225 32 -244 28 -626 16 -817
-26 -108 -23 -154 -47 -229 -116 -32 -30 -65 -54 -73 -54 -10 0 -17 30 -26
113 -7 61 -14 123 -15 137 -2 14 -6 61 -9 105 -4 44 -8 96 -11 115 -2 19 -7
67 -10 105 -8 105 -21 244 -31 325 -21 183 -26 194 -96 214 -71 20 -105 23
-158 15z m-822 -3053 c65 -40 75 -422 15 -543 -27 -54 -45 -61 -81 -32 -62 50
-66 67 -68 262 -2 214 4 251 51 294 33 32 55 37 83 19z m752 -31 c76 -39 121
-146 125 -295 6 -199 -47 -344 -137 -379 -21 -8 -35 -5 -70 12 -82 42 -121
138 -122 307 -1 136 12 202 58 279 23 41 32 50 66 74 30 21 43 21 80 2z m1067
-17 c140 -70 217 -241 209 -468 -3 -81 -10 -123 -30 -184 -49 -144 -113 -208
-220 -220 -109 -13 -202 74 -259 244 -79 234 8 546 175 629 54 26 70 26 125
-1z"/>
</g>
</svg>
