<svg xmlns="http://www.w3.org/2000/svg" width="400" height="400" preserveAspectRatio="xMidYMid meet" version="1.0" viewBox="0 0 300 300"><metadata>Created by potrace 1.16, written by Peter Selinger 2001-2019</metadata><g fill="#000" stroke="none"><path d="M830 2529 c-13 -6 -28 -15 -32 -22 -4 -7 -5 -123 -1 -258 l6 -246 -27 -24 c-28 -24 -28 -24 -24 -139 l3 -115 -90 -44 -90 -43 -45 18 c-25 9 -68 19 -96 22 l-51 4 -1 -84 c0 -69 -6 -101 -37 -188 -20 -58 -40 -120 -45 -139 -11 -42 -14 -45 -77 -65 -56 -19 -82 -41 -66 -57 5 -5 34 -22 63 -37 49 -26 55 -32 66 -76 17 -65 39 -108 74 -146 16 -18 30 -34 30 -37 0 -2 -20 -29 -45 -59 -82 -102 -84 -173 -4 -194 65 -18 169 6 251 57 46 28 44 28 131 -1 301 -100 636 -168 931 -188 348 -24 635 25 844 144 170 97 316 295 338 457 l7 54 -89 -5 c-56 -3 -129 -17 -199 -36 -228 -65 -330 -83 -520 -91 -185 -8 -373 1 -403 19 -12 6 31 10 138 10 278 1 487 34 720 115 121 42 209 57 288 50 l73 -7 -6 29 c-30 132 -58 183 -159 291 -63 66 -163 142 -253 192 -25 13 -43 32 -45 44 -4 30 -64 26 -388 -25 -128 -21 -179 -23 -440 -23 -424 0 -451 13 -74 35 311 18 442 36 557 79 l58 22 -3 66 -3 66 -50 12 c-245 59 -240 58 -335 40 -130 -26 -230 -33 -344 -26 -88 6 -157 23 -144 36 3 2 94 8 204 14 109 5 221 16 247 23 l48 12 -23 21 c-63 58 -422 78 -581 33 -21 -5 -51 -25 -67 -42 -16 -18 -31 -29 -35 -26 -3 4 -12 80 -20 170 -28 317 -24 297 -58 309 -36 12 -74 12 -107 -1z m-307 -1313 c23 -59 18 -198 -8 -232 -13 -18 -15 -18 -37 4 -21 20 -23 32 -23 116 0 77 3 98 18 114 20 21 42 20 50 -2z m329 -13 c30 -35 39 -65 39 -128 0 -100 -43 -171 -89 -146 -30 16 -41 35 -52 89 -23 124 46 249 102 185z m455 -3 c114 -69 98 -343 -22 -366 -48 -9 -81 15 -111 79 -51 111 -12 268 76 300 23 8 23 8 57 -13z" transform="translate(0.000000,300.000000) scale(0.100000,-0.100000)"/></g></svg>